<?xml version="1.0" encoding="utf-8"?>
<!-- Generator: Adobe Illustrator 19.0.0, SVG Export Plug-In . SVG Version: 6.00 Build 0)  -->
<svg version="1.1" id="Livello_1" xmlns="http://www.w3.org/2000/svg" xmlns:xlink="http://www.w3.org/1999/xlink" x="0px" y="0px"
	 viewBox="126 -126 512 512" style="enable-background:new 126 -126 512 512;" xml:space="preserve">
<style type="text/css">
	.st0{fill:#FFFFFF;}
	.st1{fill:#FF0000;stroke:#4D4D4D;stroke-miterlimit:10;}
	.st2{fill:#FF0000;stroke:#000000;stroke-miterlimit:10;}
</style>
<g>
	<path class="st0" d="M341,334.6c-71.7,0-143.3,0-215,0c0-137.1,0-274.1,0-411.2c88.2,0,176.5,0,264.7,0c-0.7,2.1-1.8,4.1-2,6.2
		c-2.6,20.6-5.2,41.2-7.5,61.9c-1.9,17,4.3,23.7,21.4,23.5c15.3-0.2,16.1-1.1,13.8-16.1c-0.1-0.4-0.4-0.7-0.7-1.1
		c-10.3-0.7-10.4-0.7-9.1-11c2.2-17.7,4.6-35.4,6.6-53.2c0.4-3.3-0.6-6.8-1-10.2c7.2,0,14.3,0,21.5,0c-1.4,7.6-3.2,15.2-4.2,22.9
		c-2.2,16.6-4.4,33.3-5.8,50c-0.9,11.2,4.7,17.2,15.8,18.4c4.2,0.5,8.5,0.3,12.7,0.1c14.3-0.8,15-1.6,13.4-15.8
		c0-0.4-0.5-0.7-0.8-1.2c-3.2,0-6.5,0.1-9.8,0c-3.9-0.1-6.7-2.1-6.2-6.2c1-9.9,2.5-19.7,3.7-29.6c2.7-0.1,4.5-0.3,6.3-0.3
		c12.6-0.3,12.8-0.4,12.8-13.1c0-1.5-2.4-3.9-3.9-4.2c-4.1-0.6-8.3-0.2-12.8-0.2c0.4-3.8,0.9-6.5,0.9-9.1c0-3.9-0.4-7.7-0.6-11.6
		c60.9,0,121.8,0,182.8,0c0,137.1,0,274.1,0,411.2c-91.8,0-183.7,0-275.5,0c7.7-1.5,15.4-2.6,23-4.5c35.7-9.2,66.9-27.4,96.7-48.4
		c39.1-27.6,74.2-59.7,107.4-94.1c3.2-3.3,7.9-5.1,11.8-7.8c1.3-0.9,3.1-2.3,3.1-3.5c0-1.3-1.7-3.2-3-3.6c-2-0.7-4.4-0.4-6.7-0.4
		c-44.1,0-88.2,0-132.3,0c-1.8,0-3.8-0.3-5.3,0.3c-1.4,0.6-3.1,2.3-3.1,3.5c0,1.2,1.8,3.5,2.9,3.5c6,0.2,5.8,4.1,4.7,7.9
		c-4.3,15-7.1,30.7-13.5,44.8c-17.9,39.3-46.7,65.1-91.9,68.1c-26.5,1.8-50.3-15.7-56.6-41.8c-6-24.9,7.6-51.6,31.6-61.6
		c24.1-10.1,52.4-1.4,66.1,20.4c14.4,22.9,10.4,51.7-9.7,69.5c-1.3,1.2-2.6,2.5-3.9,3.7c0.4,0.5,0.8,1,1.2,1.4
		c7.6-5.4,15.4-10.5,22.5-16.5c3.2-2.7,5.7-7,6.9-11c8-28.1-3.7-58.4-28.1-74.6c-1.8-1.2-3.6-2.4-5.4-3.6
		c27.8,8.1,43.4,37.3,40.2,73.8c7.2-6.1,5.7-13.8,4.8-21.2c-3.9-30.9-20.5-52.5-49.8-62.4c-30.2-10.3-57.4-3.1-78.8,20.5
		c-20.7,22.8-24.5,49.5-13.4,78.1c2.3,5.8,5.8,11.2,9.2,17.7c-32.4-17-54.7-41.6-67.9-74.5c-1.1-2.8-0.8-6.2-1.2-9.9
		c-5.4,0-11.9,0-18.4,0c2.5,5.1,4.8,9.8,7.1,14.5c3.2,6.4,6.3,12.9,9.9,19.1c19.4,33.5,43.9,62.4,79.3,79.6
		C314,327.7,327.9,330.4,341,334.6z M185.6,157.2c4.6,0.8,8.3,1.5,12.1,2.1c33,5.1,57.7-6.1,72.4-33.7c10.3-19.5,17-40.4,19.1-62.5
		c1.8-19.4-6.3-30.5-25.6-33.3c-25.2-3.7-49.9,0-74.3,7.1c-9.4,2.7-15.3,8.9-18.1,18.2c-3.2,10.5-6.3,21-9.4,31.5
		c-10.7,35.8-21.4,71.6-32,107.4c-2.4,8.1-1.8,8.8,6.8,8.8c8.7,0,17.5-0.4,26.2,0.1c6.9,0.4,10.2-2.7,11.9-9
		C178,181.7,181.8,169.8,185.6,157.2z M377.4,27.3c0,0.4-0.1,0.8-0.1,1.3c-4.2,0-8.5-0.3-12.7,0.1c-21.6,2-40.9,9.3-53.3,28
		c-14.1,21.3-21.7,45.1-22.6,70.7c-0.5,15.5,7.1,25.8,22.3,29.3c10.5,2.5,21.7,3.3,32.5,3.3c34.7-0.1,59.4-15.5,71.8-48.7
		c5.9-15.8,11.2-31.7,11.7-48.7c0.5-17.5-7.4-28-24.5-31.7C394.3,29.1,385.8,28.5,377.4,27.3z M456.2,161.1c0.1-0.3,0.1-0.6,0.2-0.9
		c4.2-0.2,8.5-0.3,12.7-0.6c30.4-2.3,51.3-20.9,56.6-50.1c2.9-16-2.5-24.8-18.1-29.2c-5.4-1.5-11-2.3-16.3-3.9
		c-6.7-2-9.2-7.7-4.7-12.9c3.1-3.6,8.8-6.6,13.5-6.8c8.8-0.5,17.8,0.9,26.7,2.1c4.7,0.6,7.7-0.2,9.5-4.9c1.7-4.4,3.8-8.6,6-12.7
		c2.5-4.8,1.2-7.2-4.1-8.6c-17.4-4.4-34.9-5.7-52.6-3c-27.4,4.1-44.7,21.6-48.6,48.8c-2.2,15.1,3.4,24,18.2,28.1
		c5.4,1.5,10.9,2.4,16.3,3.9c6.4,1.8,7.8,4.9,5.7,11.1c-2.7,7.9-9.2,10.6-16.4,10.1c-10.2-0.7-20.4-2.5-30.5-4.2
		c-4.2-0.8-6.8,0-8.5,4.1c-2,4.7-4.4,9.3-6.5,14c-3,6.5-2.4,8.5,4.6,9.9C431.9,157.6,444.1,159.2,456.2,161.1z M606.3,31.2
		c2.8-9.4,4.9-17.4,7.5-25.2c2-5.9,0-7.6-5.8-7.4c-9.2,0.3-18.4,0.5-27.5,0c-7.2-0.4-10.4,2.6-12.4,9.2
		c-7.3,25.3-15.2,50.5-22.6,75.9c-4.5,15.2-9.2,30.4-12.4,45.9c-3.1,14.7,3.7,24.2,18.6,27.5c16.7,3.8,33.4,2.1,49.7-2.6
		c2-0.6,4.8-2.7,5.1-4.5c1.3-7.4,1.8-14.9,2.7-23c-6.6,0.4-11.9,1-17.2,1.1c-10.7,0.1-13.6-3.4-10.8-13.6
		c4.5-15.9,9.5-31.7,14.2-47.6c1-3.3,2.6-4.6,6.2-4.5c6.9,0.3,13.9,0,20.8,0.1c4.4,0.1,7.2-1.7,8.4-6.1c1.7-6.3,3.5-12.5,5.6-18.6
		c1.8-5.2-0.1-6.9-5.3-6.7C623.3,31.4,615.5,31.2,606.3,31.2z M352.6,197.8c-27.5,0-49.1,21.3-49.2,48.6
		c-0.1,27.3,21.6,49.2,48.8,49.2c27.2,0,48.9-21.8,49-49.1C401.1,219.7,379.4,197.8,352.6,197.8z M262.4,13.5c8.8,0,16.5,0,25.2,0
		c2.1-18.4,4.6-36.5,6-54.7c0.6-8.3-4.2-14.2-12.6-14.8c-11-0.8-22.1,0.6-33.2,1.1c-2.2,0.1-4.6,1.2-6.4,0.5
		c-16-6.2-31.7-2.3-47.5,0.8c-4.7,0.9-7.1,3.8-7.6,8.8c-1,10-2.5,20-3.7,30c-1.1,9.2-2.1,18.5-3.3,28.6c6.9,0,12.9-0.4,18.9,0.1
		c5.1,0.4,6.4-1.8,6.9-6.4c1.5-14.2,3.9-28.4,5-42.6c0.6-8.2,6-6.3,10.5-6.2c5.3,0.1,6.6,3.7,6,8.4c-0.6,4.7-1.3,9.3-1.8,14
		c-1.2,10.7-2.4,21.5-3.7,32.8c5.8,0,10.5,0,15.2,0c9.5,0,9.5,0,10.6-9.8c1.8-14.8,3.7-29.7,5.5-44.3c14-3.2,16.7-0.8,15,12.9
		C265.7-14,264.1-0.7,262.4,13.5z M549.5,1.3c-9.6-0.7-9.6-0.8-8.5-10.6c1.1-9.8,2.6-19.5,3.1-29.3c0.5-10.3-3.6-15.4-13.6-17.6
		c-14.8-3.3-29.3-1.2-43.6,3.3c-1.4,0.4-3.2,2.7-3.2,4.2c0,3.7,0.8,7.3,1.3,10.7c9-1.2,17.1-2.5,25.2-3.2c3.9-0.3,8.6-0.1,8.9,5.7
		c0.3,5.6-4.4,4.5-7.6,5.1c-8.7,1.8-17.8,2.7-26.1,5.6c-8.8,3.1-13.4,13.6-12.1,23.9c1.1,9.1,5.6,14.8,16.1,15.9
		c9.1,0.9,18.5-0.8,27.7-1.4c2.1-0.1,4.2-0.7,6.3-0.5c5.3,0.6,10.5,2.2,15.7,2.2C551.2,15.1,552.1,13.6,549.5,1.3z M373.3,1.4
		c-9.1-1.2-9.2-1.2-8.1-11c1-9.3,2.5-18.6,3.1-28c0.7-11.6-3.6-16.9-15.1-19.1c-14.1-2.7-28.1-0.7-41.6,3.5
		c-1.7,0.5-3.4,3.7-3.6,5.8c-0.3,2.9,0.8,6,1.4,9.8c2.6-0.6,4.7-1.2,6.8-1.5c6.6-0.9,13.2-2,19.9-2.4c3.7-0.2,7.2,1.1,7.3,6
		c0.1,4.9-3.7,4.2-6.6,4.7c-7.7,1.3-15.5,2.1-23.1,4c-11.3,2.9-17.1,12.5-16.1,25.3c0.8,10.2,7.4,16.7,19.6,17.1
		c8.3,0.3,16.8-1.5,25.2-2.4c1.9-0.2,3.8-0.4,5.6-0.2c5.5,0.6,11,2,16.4,2C375.3,15,376.9,12.3,373.3,1.4z"/>
	<path d="M339.5,334.6c-13.1-4.2-27-6.9-39.2-12.9c-35.4-17.3-59.9-46.1-79.3-79.6c-3.6-6.2-6.6-12.7-9.9-19.1
		c-2.4-4.6-4.6-9.3-7.1-14.5c6.5,0,13,0,18.4,0c0.4,3.8,0.1,7.1,1.2,9.9c13.2,32.9,35.5,57.5,67.9,74.5c-3.4-6.5-6.9-11.9-9.2-17.7
		c-11.1-28.6-7.2-55.4,13.4-78.1c21.4-23.6,48.7-30.8,78.8-20.5c29.3,10,45.9,31.6,49.8,62.4c0.9,7.4,2.4,15.1-4.8,21.2
		c3.2-36.6-12.4-65.7-40.2-73.8c1.8,1.2,3.6,2.4,5.4,3.6c24.5,16.2,36.1,46.5,28.1,74.6c-1.1,4-3.7,8.3-6.9,11
		c-7.1,6-15,11-22.5,16.5c-0.4-0.5-0.8-1-1.2-1.4c1.3-1.2,2.6-2.5,3.9-3.7c20.1-17.8,24.1-46.6,9.7-69.5
		c-13.7-21.8-42-30.5-66.1-20.4c-23.9,10-37.6,36.7-31.6,61.6c6.3,26.1,30,43.6,56.6,41.8c45.3-3,74-28.8,91.9-68.1
		c6.4-14.1,9.2-29.8,13.5-44.8c1.1-3.9,1.3-7.7-4.7-7.9c-1.1,0-3-2.3-2.9-3.5c0.1-1.3,1.8-2.9,3.1-3.5c1.5-0.7,3.5-0.3,5.3-0.3
		c44.1,0,88.2,0,132.3,0c2.2,0,4.6-0.3,6.7,0.4c1.3,0.4,3,2.4,3,3.6c0,1.2-1.8,2.6-3.1,3.5c-3.9,2.7-8.6,4.5-11.8,7.8
		c-33.2,34.4-68.3,66.6-107.4,94.1c-29.7,21-61,39.2-96.7,48.4c-7.6,1.9-15.3,3-23,4.5C353.8,334.6,346.7,334.6,339.5,334.6z
		 M527.1,180.5c-12.9-1.3-12.8-1.2-17.1,8.4c-20.9,46.8-50.8,86.1-95.7,112.6c-4.4,2.6-9,5-13.6,7.3c-4.5,2.2-9.2,4.1-13.9,6.1
		c0.4,0.5,0.7,0.9,1.1,1.4C456.2,294.1,499.9,246.7,527.1,180.5z M313.4,295.1c-14.7-13-22.8-29-22.8-48.8
		c0-19.5,8.5-35.2,22.7-48.3C280.1,219.1,280.2,275.8,313.4,295.1z"/>
	<path d="M453.7-76.6c0.2,3.9,0.6,7.7,0.6,11.6c0,2.6-0.5,5.3-0.9,9.1c4.6,0,8.8-0.4,12.8,0.2c1.5,0.2,3.9,2.7,3.9,4.2
		c0,12.7-0.2,12.8-12.8,13.1c-1.8,0-3.6,0.2-6.3,0.3c-1.3,9.9-2.7,19.7-3.7,29.6c-0.4,4.1,2.3,6.1,6.2,6.2c3.3,0.1,6.6,0,9.8,0
		c0.3,0.5,0.7,0.9,0.8,1.2c1.6,14.2,0.9,15-13.4,15.8c-4.2,0.2-8.5,0.3-12.7-0.1c-11.1-1.2-16.8-7.3-15.8-18.4
		c1.4-16.7,3.6-33.3,5.8-50c1-7.7,2.8-15.2,4.2-22.9C439.4-76.6,446.6-76.6,453.7-76.6z"/>
	<path d="M410.7-76.6c0.4,3.4,1.3,6.9,1,10.2c-2,17.8-4.4,35.5-6.6,53.2c-1.3,10.4-1.2,10.4,9.1,11c0.2,0.3,0.6,0.7,0.7,1.1
		c2.3,15,1.6,15.9-13.8,16.1c-17,0.2-23.3-6.5-21.4-23.5c2.3-20.7,4.9-41.3,7.5-61.9c0.3-2.1,1.3-4.2,2-6.2
		C396.4-76.6,403.6-76.6,410.7-76.6z"/>
	<path class="st1" d="M184.1,157.2c-3.8,12.6-7.6,24.5-11,36.6c-1.8,6.3-5,9.4-11.9,9c-8.7-0.5-17.5-0.1-26.2-0.1
		c-8.6,0-9.2-0.7-6.8-8.8c10.6-35.8,21.3-71.6,32-107.4c3.1-10.5,6.3-21,9.4-31.5c2.8-9.2,8.6-15.4,18.1-18.2
		c24.3-7,49-10.8,74.3-7.1c19.4,2.8,27.5,13.9,25.6,33.3c-2.1,22.1-8.8,43-19.1,62.5c-14.6,27.6-39.4,38.8-72.4,33.7
		C192.4,158.7,188.7,158,184.1,157.2z M193,129.1c16.7,5.6,28.4,1.5,34.5-13.7c5.5-13.8,9.7-28.3,13.3-42.7
		c2.9-12-0.7-15.6-12.9-15.3c-3.1,0.1-6.2,0.6-9.3,0.9c-3.8,0.4-5.7,2.4-6.7,6.2c-5.6,19.5-11.6,38.9-17.4,58.4
		C193.8,124.9,193.4,127,193,129.1z"/>
	<path class="st1" d="M375.9,27.3c8.4,1.2,16.9,1.8,25.1,3.6c17.1,3.7,25,14.2,24.5,31.7c-0.5,17-5.9,32.9-11.7,48.7
		c-12.4,33.3-37.1,48.7-71.8,48.7c-10.9,0-22-0.9-32.5-3.3c-15.2-3.5-22.8-13.9-22.3-29.3c0.8-25.6,8.5-49.4,22.6-70.7
		c12.4-18.8,31.7-26,53.3-28c4.2-0.4,8.5-0.1,12.7-0.1C375.8,28.2,375.8,27.7,375.9,27.3z M345.9,131c6.6,0.4,13.2-1.6,16.8-8
		c9.4-17.2,14.6-35.9,17.1-55.3c0.8-6.1-2.8-9.5-8.8-10.4c-10.7-1.5-19.1,1.8-22.9,12c-5.8,15.6-10.7,31.7-14.7,47.8
		C330.7,127.4,334.7,131,345.9,131z"/>
	<path class="st2" d="M454.7,161.1c-12.1-1.9-24.3-3.5-36.3-5.8c-7-1.4-7.6-3.3-4.6-9.9c2.1-4.7,4.5-9.2,6.5-14
		c1.7-4.1,4.3-4.8,8.5-4.1c10.1,1.8,20.3,3.6,30.5,4.2c7.2,0.5,13.7-2.2,16.4-10.1c2.1-6.2,0.6-9.3-5.7-11.1
		c-5.4-1.5-10.9-2.4-16.3-3.9c-14.7-4.2-20.3-13-18.2-28.1c3.9-27.2,21.2-44.7,48.6-48.8c17.7-2.7,35.2-1.5,52.6,3
		c5.3,1.4,6.6,3.8,4.1,8.6c-2.2,4.2-4.3,8.4-6,12.7c-1.8,4.7-4.8,5.5-9.5,4.9c-8.8-1.1-17.8-2.5-26.7-2.1
		c-4.7,0.3-10.4,3.2-13.5,6.8c-4.5,5.1-1.9,10.9,4.7,12.9c5.3,1.6,10.9,2.4,16.3,3.9c15.6,4.3,21,13.1,18.1,29.2
		c-5.2,29.2-26.2,47.8-56.6,50.1c-4.2,0.3-8.5,0.4-12.7,0.6C454.8,160.5,454.8,160.8,454.7,161.1z"/>
	<path class="st2" d="M604.8,31.2c9.2,0,17,0.2,24.8-0.1c5.2-0.1,7.1,1.5,5.3,6.7c-2.1,6.1-3.9,12.4-5.6,18.6
		c-1.2,4.4-4,6.1-8.4,6.1c-6.9-0.1-13.9,0.2-20.8-0.1c-3.6-0.2-5.2,1.2-6.2,4.5c-4.7,15.9-9.7,31.7-14.2,47.6
		c-2.9,10.1,0.1,13.7,10.8,13.6c5.3-0.1,10.6-0.7,17.2-1.1c-0.9,8.2-1.4,15.7-2.7,23c-0.3,1.8-3.1,4-5.1,4.5
		c-16.3,4.7-33,6.4-49.7,2.6c-14.8-3.4-21.6-12.8-18.6-27.5c3.2-15.5,7.9-30.7,12.4-45.9c7.4-25.3,15.3-50.5,22.6-75.9
		c1.9-6.6,5.2-9.7,12.4-9.2c9.1,0.5,18.4,0.3,27.5,0c5.8-0.2,7.8,1.5,5.8,7.4C609.6,13.9,607.5,21.8,604.8,31.2z"/>
	<path class="st2" d="M351.1,197.8c26.8,0,48.6,21.9,48.5,48.7c0,27.3-21.8,49.1-49,49.1c-27.2,0-48.9-21.9-48.8-49.2
		C301.9,219.1,323.5,197.8,351.1,197.8z M348.7,248.8c-3.8,10.4-7.7,20.8-11.5,31.2c0.3,0.2,0.7,0.4,1,0.7c4-3.7,8.1-7.4,12.4-11.5
		c4.5,4.1,8.8,8,13,11.9c0.3-0.3,0.6-0.6,0.9-0.9c-4.4-11.1-8.9-22.2-13.3-33.3c10.8,4.6,21.7,9.2,32.5,13.8c0.3-0.5,0.6-1,0.8-1.6
		c-3.7-4-7.5-8-11.5-12.3c4.1-4.5,7.9-8.7,11.8-12.9c-0.3-0.3-0.7-0.7-1-1c-10.7,4.4-21.4,8.7-32.1,13.1
		c4.3-11.1,8.6-22.2,12.9-33.3c-0.3-0.2-0.6-0.4-0.9-0.5c-4.2,3.9-8.4,7.8-13.1,12.1c-4.5-4.1-8.7-8-13-11.9
		c2.9,10.4,6.8,20.1,11,29.7c0.6,1.5,2.2,2.6,3.4,3.8c-0.2,0.4-0.4,0.9-0.5,1.3c-1,0.7-2,1.4-3,2.1c-0.9-1.5-1.4-3.8-2.6-4.4
		c-9.5-4.2-19.2-8.1-28.8-12.1c-0.3,0.5-0.5,0.9-0.8,1.4c3.9,4.2,7.8,8.3,11.9,12.6c-4.2,4.6-8,8.8-11.9,13.1c2.5,0.3,4.1-0.4,5.7-1
		C330.9,255.4,339.8,252.1,348.7,248.8z"/>
	<path d="M260.9,13.5c1.7-14.2,3.3-27.5,5-40.8c1.7-13.7-1-16.1-15-12.9c-1.8,14.6-3.7,29.5-5.5,44.3c-1.2,9.8-1.1,9.8-10.6,9.8
		c-4.7,0-9.3,0-15.2,0c1.3-11.3,2.4-22.1,3.7-32.8c0.5-4.7,1.2-9.3,1.8-14c0.6-4.7-0.7-8.3-6-8.4c-4.5-0.1-9.9-2-10.5,6.2
		c-1.1,14.2-3.5,28.4-5,42.6c-0.5,4.6-1.8,6.8-6.9,6.4c-5.9-0.5-11.9-0.1-18.9-0.1c1.2-10.2,2.2-19.4,3.3-28.6
		c1.2-10,2.7-19.9,3.7-30c0.5-5,2.9-7.9,7.6-8.8c15.8-3.1,31.5-7.1,47.5-0.8c1.8,0.7,4.3-0.4,6.4-0.5c11.1-0.5,22.2-1.9,33.2-1.1
		c8.4,0.6,13.2,6.5,12.6,14.8c-1.4,18.2-3.9,36.3-6,54.7C277.4,13.5,269.7,13.5,260.9,13.5z"/>
	<path d="M548,1.3c2.6,12.3,1.7,13.8-10.4,13.8c-5.2,0-10.5-1.6-15.7-2.2c-2-0.2-4.2,0.3-6.3,0.5c-9.3,0.6-18.6,2.3-27.7,1.4
		c-10.5-1.1-15-6.8-16.1-15.9c-1.2-10.4,3.3-20.9,12.1-23.9c8.3-2.9,17.4-3.8,26.1-5.6c3.2-0.7,7.9,0.5,7.6-5.1
		c-0.3-5.8-4.9-6-8.9-5.7c-8.2,0.7-16.3,2-25.2,3.2c-0.5-3.4-1.3-7-1.3-10.7c0-1.4,1.8-3.7,3.2-4.2c14.3-4.4,28.8-6.5,43.6-3.3
		c10.1,2.2,14.1,7.4,13.6,17.6c-0.5,9.8-2,19.5-3.1,29.3C538.4,0.5,538.4,0.6,548,1.3z M515.2-17.9c-5,0.8-9.2,1.2-13.2,2.3
		c-4.9,1.3-6.2,5.4-6,10c0.3,4.7,3.6,6.5,7.8,6.5c3.4,0.1,6.8-0.5,10.1-0.7C514.3-6.1,514.7-11.3,515.2-17.9z"/>
	<path d="M371.8,1.4c3.6,10.8,2,13.6-9,13.7c-5.5,0-11-1.4-16.4-2c-1.8-0.2-3.7,0-5.6,0.2c-8.4,0.8-16.8,2.7-25.2,2.4
		c-12.2-0.4-18.8-6.9-19.6-17.1c-1-12.8,4.8-22.4,16.1-25.3c7.5-1.9,15.4-2.7,23.1-4c2.9-0.5,6.7,0.2,6.6-4.7
		c-0.1-4.9-3.6-6.2-7.3-6c-6.6,0.4-13.3,1.5-19.9,2.4c-2.1,0.3-4.2,0.9-6.8,1.5c-0.6-3.7-1.7-6.8-1.4-9.8c0.2-2.1,1.9-5.3,3.6-5.8
		c13.6-4.2,27.5-6.1,41.6-3.5c11.5,2.2,15.8,7.5,15.1,19.1c-0.5,9.3-2,18.6-3.1,28C362.7,0.2,362.7,0.2,371.8,1.4z M339.5-18.4
		c-7.1,2.8-15.3-0.2-18.4,7.9c-1,2.6-0.2,8.4,1.2,8.9c4.8,1.9,10.2,2.1,15.5,2.9C338.5-6.1,338.9-11.5,339.5-18.4z"/>
	<path class="st0" d="M527.1,180.5c-27.2,66.2-70.9,113.6-139.1,135.8c-0.4-0.5-0.7-0.9-1.1-1.4c4.6-2,9.3-3.9,13.9-6.1
		c4.6-2.3,9.2-4.7,13.6-7.3c44.8-26.5,74.7-65.7,95.7-112.6C514.3,179.3,514.2,179.2,527.1,180.5z"/>
	<path class="st0" d="M313.4,295.1c-33.2-19.3-33.3-76-0.1-97c-14.2,13-22.7,28.7-22.7,48.3C290.6,266.1,298.7,282.1,313.4,295.1z"
		/>
	<path class="st0" d="M193,129.1c0.5-2.1,0.8-4.2,1.4-6.3c5.8-19.5,11.7-38.9,17.4-58.4c1.1-3.7,2.9-5.8,6.7-6.2
		c3.1-0.3,6.2-0.8,9.3-0.9c12.2-0.3,15.9,3.3,12.9,15.3c-3.5,14.5-7.8,28.9-13.3,42.7C221.4,130.6,209.6,134.7,193,129.1z"/>
	<path class="st0" d="M345.9,131c-11.1,0.1-15.2-3.6-12.6-13.8c4-16.2,8.9-32.2,14.7-47.8c3.8-10.1,12.2-13.5,22.9-12
		c6.1,0.9,9.6,4.3,8.8,10.4c-2.5,19.4-7.6,38.1-17.1,55.3C359.1,129.4,352.5,131.4,345.9,131z"/>
	<path class="st0" d="M352,245.7c-1.1-1.3-2.7-2.4-3.4-3.8c-4.1-9.6-8.1-19.2-11-29.7c4.3,3.9,8.6,7.9,13,11.9
		c4.6-4.3,8.9-8.2,13.1-12.1c0.3,0.2,0.6,0.4,0.9,0.5c-4.3,11.1-8.6,22.2-12.9,33.3L352,245.7z"/>
	<path class="st0" d="M351.8,245.9c10.7-4.4,21.4-8.7,32.1-13.1c0.3,0.3,0.7,0.7,1,1c-3.8,4.2-7.6,8.4-11.8,12.9
		c4,4.3,7.7,8.3,11.5,12.3c-0.3,0.5-0.6,1-0.8,1.6c-10.8-4.6-21.7-9.2-32.5-13.8l0.2,0.2c0.2-0.4,0.4-0.9,0.5-1.3
		C352,245.7,351.8,245.9,351.8,245.9z"/>
	<path class="st0" d="M348.7,248.8c-8.9,3.3-17.8,6.6-26.7,9.9c-1.6,0.6-3.2,1.3-5.7,1c3.9-4.2,7.7-8.5,11.9-13.1
		c-4.1-4.3-8-8.5-11.9-12.6c0.3-0.5,0.5-0.9,0.8-1.4c9.6,4,19.3,7.9,28.8,12.1c1.3,0.6,1.8,2.9,2.7,4.3
		C348.5,249,348.7,248.8,348.7,248.8z"/>
	<path class="st0" d="M351.3,246.8c4.4,11.1,8.9,22.2,13.3,33.3c-0.3,0.3-0.6,0.6-0.9,0.9c-4.2-3.9-8.5-7.7-13-11.9
		c-4.4,4-8.4,7.8-12.4,11.5c-0.3-0.2-0.7-0.4-1-0.7c3.8-10.4,7.7-20.8,11.5-31.1c0,0-0.2,0.2-0.2,0.2c1-0.7,2-1.4,2.9-2.1
		C351.4,247,351.3,246.8,351.3,246.8z"/>
	<path class="st0" d="M515.2-17.9c-0.5,6.6-0.9,11.8-1.3,18.1c-3.2,0.2-6.7,0.7-10.1,0.7c-4.2-0.1-7.5-1.8-7.8-6.5
		c-0.2-4.5,1-8.6,6-10C506-16.7,510.2-17,515.2-17.9z"/>
	<path class="st0" d="M339.5-18.4c-0.6,6.9-1.1,12.4-1.7,19.7c-5.3-0.9-10.7-1-15.5-2.9c-1.4-0.6-2.2-6.3-1.2-8.9
		C324.2-18.6,332.4-15.7,339.5-18.4z"/>
</g>
</svg>
